# xmcd
#
# Track frame offsets:
#	200
#	14837
#	24387
#	34560
#	46137
#	63507
#	75562
#	87652
#	101267
#	113595
#	129587
#	142787
#
# Disc length: 2002 seconds
#
# Revision: 2
# Processed by: cddbd v1.5.2PL0 Copyright (c) Steve Scherf et al.
# Submitted via: dBpowerAMP V4.0
#
DISCID=8f07d00c
DTITLE=Vassar Clements - Grass Routes
DYEAR=1991
DGENRE=Jazzgrass
TTITLE0=Beats Me
TTITLE1=Westport Drive
TTITLE2=Come on Home
TTITLE3=Florida Blues
TTITLE4=The Other End
TTITLE5=Rain, Rain, Rain
TTITLE6=Ramblin'
TTITLE7=Rounder Blues
TTITLE8=Fiddlin' Will
TTITLE9=Non Stop
TTITLE10=Flame of Love
TTITLE11=Turkey in the Straw
EXTD=
EXTT0=
EXTT1=
EXTT2=
EXTT3=
EXTT4=
EXTT5=
EXTT6=
EXTT7=
EXTT8=
EXTT9=
EXTT10=
EXTT11=
PLAYORDER=
